<?xml version="1.0" encoding="iso-8859-1"?>
<!-- Uploaded to: SVG Repo, www.svgrepo.com, Generator: SVG Repo Mixer Tools -->
<svg version="1.1" id="Layer_1" xmlns="http://www.w3.org/2000/svg" xmlns:xlink="http://www.w3.org/1999/xlink" 
	 viewBox="0 0 512 512" xml:space="preserve">
<path style="fill:#F2F2F2;" d="M301.452,479.455h-47.738c-13.182,0-23.869-10.687-23.869-23.869V56.414
	c0-13.182,10.687-23.869,23.869-23.869h47.738c13.182,0,23.869,10.687,23.869,23.869v399.172
	C325.321,468.769,314.635,479.455,301.452,479.455z"/>
<rect x="259.304" y="10.199" style="fill:#FFAD61;" width="36.565" height="491.602"/>
<path style="fill:#F2F2F2;" d="M396.929,479.455h-47.738c-13.182,0-23.869-10.687-23.869-23.869V56.414
	c0-13.182,10.687-23.869,23.869-23.869h47.738c13.182,0,23.869,10.687,23.869,23.869v399.172
	C420.798,468.769,410.111,479.455,396.929,479.455z"/>
<rect x="354.779" y="10.199" style="fill:#FFAD61;" width="36.565" height="491.602"/>
<path style="fill:#F2F2F2;" d="M110.5,479.455H62.761c-13.182,0-23.869-10.687-23.869-23.869V56.414
	c0-13.182,10.687-23.869,23.869-23.869H110.5c13.182,0,23.869,10.687,23.869,23.869v399.172
	C134.369,468.769,123.682,479.455,110.5,479.455z"/>
<rect x="68.344" y="10.199" style="fill:#FFAD61;" width="36.565" height="491.602"/>
<path style="fill:#F2F2F2;" d="M205.976,479.455h-47.738c-13.182,0-23.869-10.687-23.869-23.869V56.414
	c0-13.182,10.687-23.869,23.869-23.869h47.738c13.182,0,23.869,10.687,23.869,23.869v399.172
	C229.845,468.769,219.159,479.455,205.976,479.455z"/>
<rect x="163.819" y="10.199" style="fill:#FFAD61;" width="36.565" height="491.602"/>
<g>
	<path style="fill:#534741;" d="M473.107,438.785h-1.904c-5.633,0-10.199,4.566-10.199,10.199s4.566,10.199,10.199,10.199h1.904
		c5.633,0,10.199-4.566,10.199-10.199S478.74,438.785,473.107,438.785z"/>
	<path style="fill:#534741;" d="M439.585,438.785h-8.588V68.137h42.109c5.633,0,10.199-4.566,10.199-10.199
		s-4.566-10.199-10.199-10.199h-43.232c-3.466-13.15-14.613-23.205-28.332-25.072V10.199C401.542,4.566,396.976,0,391.343,0h-36.565
		c-5.633,0-10.199,4.566-10.199,10.199v12.468c-7.451,1.014-14.141,4.439-19.256,9.469c-5.115-5.03-11.807-8.455-19.256-9.469
		V10.199C306.066,4.566,301.5,0,295.867,0h-36.566c-5.633,0-10.199,4.566-10.199,10.199v12.468
		c-7.45,1.014-14.141,4.439-19.256,9.469c-5.115-5.03-11.807-8.455-19.256-9.469V10.199C210.59,4.566,206.023,0,200.39,0h-36.565
		c-5.633,0-10.199,4.566-10.199,10.199v12.468c-7.451,1.014-14.141,4.439-19.256,9.469c-5.115-5.03-11.807-8.455-19.256-9.469
		V10.199C115.114,4.566,110.548,0,104.915,0H68.348c-5.633,0-10.199,4.566-10.199,10.199v12.468
		c-16.61,2.259-29.455,16.527-29.455,33.747v399.172c0,17.22,12.845,31.488,29.455,33.747v12.467
		c0,5.633,4.566,10.199,10.199,10.199h36.565c5.633,0,10.199-4.566,10.199-10.199v-12.467c7.45-1.014,14.141-4.439,19.256-9.469
		c5.115,5.03,11.807,8.455,19.256,9.469v12.467c0,5.633,4.566,10.199,10.199,10.199h36.565c5.633,0,10.199-4.566,10.199-10.199
		v-12.467c7.451-1.014,14.141-4.439,19.256-9.469c5.115,5.03,11.806,8.455,19.256,9.469v12.467c0,5.633,4.566,10.199,10.199,10.199
		h36.566c5.633,0,10.199-4.566,10.199-10.199v-12.467c7.449-1.014,14.141-4.439,19.256-9.469c5.115,5.03,11.807,8.455,19.256,9.469
		v12.467c0,5.633,4.566,10.199,10.199,10.199h36.565c5.633,0,10.199-4.566,10.199-10.199v-12.467
		c15.439-2.1,27.621-14.573,29.265-30.15h8.779c5.633,0,10.199-4.566,10.199-10.199S445.218,438.785,439.585,438.785z
		 M49.091,455.586V56.414c0-5.917,3.786-10.953,9.057-12.852v424.876C52.877,466.539,49.091,461.503,49.091,455.586z
		 M94.714,491.602H78.548V20.398h16.167V491.602z M115.113,468.438V43.562c5.271,1.898,9.057,6.934,9.057,12.852v399.172
		C124.17,461.503,120.384,466.539,115.113,468.438z M144.568,455.586V56.414c0-5.917,3.786-10.953,9.057-12.852v424.875
		C148.354,466.539,144.568,461.503,144.568,455.586z M190.19,491.602h-16.167V20.398h16.167V491.602z M210.589,468.438V43.562
		c5.271,1.898,9.057,6.934,9.057,12.852v399.172C219.645,461.503,215.86,466.539,210.589,468.438z M240.044,455.586V56.414
		c0-5.917,3.786-10.953,9.057-12.852v424.875C243.83,466.539,240.044,461.503,240.044,455.586z M285.667,491.602h-16.168V20.398
		h16.168V491.602z M306.065,468.438V43.562c5.271,1.898,9.057,6.934,9.057,12.852v399.172
		C315.122,461.503,311.336,466.539,306.065,468.438z M335.521,455.586V56.414c0-5.917,3.786-10.953,9.057-12.852v424.875
		C339.307,466.539,335.521,461.503,335.521,455.586z M381.143,491.602h-16.167V20.398h16.167V491.602z M410.599,455.586
		c0,5.917-3.786,10.953-9.057,12.852V43.562c5.271,1.898,9.057,6.934,9.057,12.852V455.586z"/>
</g>
</svg>